SplineFontDB: 1.0
FontName: MnSymbolS8
FullName: MnSymbolS8
FamilyName: MnSymbolS8
Weight: Regular
Copyright: Generated from MetaFont bitmap by mftrace 1.1.17, http://www.xs4all.nl/~hanwen/mftrace/ 
Version: 001.001
ItalicAngle: 0
UnderlinePosition: -100
UnderlineWidth: 50
Ascent: 800
Descent: 200
NeedsXUIDChange: 1
UniqueID: 4045160
OS2TypoAscent: 0
OS2TypoAOffset: 1
OS2TypoDescent: 0
OS2TypoDOffset: 1
OS2TypoLinegap: 0
OS2WinAscent: 0
OS2WinAOffset: 1
OS2WinDescent: 0
OS2WinDOffset: 1
HheadAscent: 0
HheadAOffset: 1
HheadDescent: 0
HheadDOffset: 1
OS2Vendor: 'PfEd'
Encoding: Custom
UnicodeInterp: none
NameList: Adobe Glyph List
DisplaySize: -24
AntiAlias: 1
FitToEm: 1
WinInfo: 54 18 9
BeginPrivate: 3
lenIV 1 4
BlueValues 2 []
ForceBold 5 false
EndPrivate
BeginChars: 256 28
StartChar: A
Encoding: 65 65 2
Width: 845
Flags: HMW
Back
105.849 62.2256 m 0
 112.363 57.3467 119.761 53.3672 127.828 50.4307 c 0
 135.647 47.585 144.097 45.7178 152.975 44.9102 c 0
 199.188 40.7109 273.354 146.239 329.558 226.154 c 0
 428.95 367.477 514.85 513.741 586.364 662.539 c 1
 630.81 662.539 l 1
 629.159 658.845 l 2
 548.721 486.46 451.858 319.941 340.638 161.8 c 0
 291.207 91.5176 191.392 -56.2539 122.75 -50.0176 c 0
 112.502 -49.0869 102.736 -46.9355 93.5996 -43.6104 c 0
 84.1729 -40.1797 75.415 -35.501 67.4951 -29.5693 c 0
 53.2383 -18.8926 33.3828 0.842773 28.5449 31.2861 c 0
 25.6797 49.3203 34.3975 79.4033 48.0049 98.4365 c 0
 61.6113 117.47 74.9785 118.281 77.8447 100.248 c 0
 79.8525 87.6162 92.8477 71.9629 105.849 62.2256 c 0
716.92 215.812 m 0
 723.382 159.713 735.193 105.526 752.201 53.8877 c 0
 752.965 51.5693 753.931 49.418 755.07 47.4434 c 0
 763.205 33.3555 779.81 30.4443 785.981 31.8877 c 0
 786.002 31.8916 784.161 31.3945 781.521 30.0625 c 1
 797.862 38.3076 l 2
 822.347 50.6602 843.824 51.5273 845.805 40.2422 c 0
 847.784 28.957 829.521 9.77246 805.036 -2.58105 c 2
 788.695 -10.8252 l 2
 773.014 -18.7373 759.372 -23.208 748.634 -25.7178 c 0
 702.396 -36.5273 677.629 -18.8623 668.278 -2.66602 c 0
 666.599 0.242188 665.194 3.375 664.09 6.73047 c 0
 646.723 59.46 634.656 114.798 628.052 172.143 c 0
 609.176 336.034 599.817 503.001 600.021 672.343 c 0
 600.035 684.594 619.983 703.785 644.547 715.181 c 0
 669.111 726.576 689.035 725.883 689.021 713.632 c 0
 688.819 545.123 698.132 378.946 716.92 215.812 c 0
349.781 163.978 m 2
 331.99 163.978 330.998 177.418 347.567 193.978 c 0
 364.136 210.537 392.023 223.978 409.814 223.977 c 2
 702.503 223.977 l 2
 720.294 223.977 721.286 210.536 704.717 193.977 c 0
 688.147 177.417 660.261 163.978 642.47 163.978 c 2
 349.781 163.978 l 2
EndSplineSet
Fore
600 672 m 2
 600 693 647 723 675 723 c 0
 684 723 689 720 689 714 c 2
 689 709 l 2
 689 357 728 95 755 47 c 0
 762 35 775 32 783 32 c 2
 785 32 l 1
 798 38 l 2
 811 45 823 48 832 48 c 0
 838 48 846 46 846 39 c 0
 846 27 828 9 805 -3 c 2
 789 -11 l 2
 766 -22 743 -28 722 -28 c 0
 695 -28 672 -18 664 7 c 0
 648 57 636 110 629 164 c 1
 350 164 l 2
 347 164 345 164 343 165 c 1
 294 95 197 -50 127 -50 c 0
 90 -50 29 -20 29 42 c 0
 29 76 52 113 68 113 c 0
 73 113 76 109 78 100 c 0
 81 79 118 45 156 45 c 0
 202 45 274 148 330 226 c 0
 429 367 515 514 586 663 c 1
 600 663 l 1
 600 672 l 2
622 224 m 1
 610 347 602 472 601 598 c 1
 553 502 476 362 378 216 c 1
 388 221 399 224 410 224 c 2
 622 224 l 1
EndSplineSet
EndChar
StartChar: B
Encoding: 66 66 3
Width: 692
Flags: HMW
Back
112.748 191.44 m 0
 149.146 337.033 176.832 482.535 195.648 627.155 c 1
 172.254 615.353 l 2
 147.77 602.999 126.292 602.133 124.312 613.418 c 0
 122.332 624.703 140.596 643.888 165.08 656.24 c 2
 239.905 693.992 l 2
 253.455 700.828 265.016 704.102 274.705 703.848 c 0
 284.394 703.592 288.777 699.898 287.899 692.729 c 0
 268.947 538.03 239.887 382.2 200.877 226.159 c 0
 183.624 157.149 156.26 88.2383 119.233 21.2764 c 0
 110.693 5.83203 85.0703 -11.9258 62.0381 -18.3604 c 0
 39.0068 -24.7959 27.2451 -17.4834 35.7852 -2.03906 c 0
 70.1816 60.168 96.2588 125.485 112.748 191.44 c 0
358.404 39.9307 m 0
 428.142 39.9307 479.568 59.209 504.374 73.5303 c 0
 554.227 102.312 564.884 148.721 566.957 157.015 c 0
 577.521 199.274 572.143 237.166 554.449 267.811 c 0
 516.17 334.111 425.34 361.498 334.343 346.131 c 0
 314.354 342.755 307.011 350.386 315.963 365.229 c 0
 324.916 380.072 345.83 394.938 368.306 402.438 c 0
 451.045 430.04 506.744 450.241 547.364 473.693 c 0
 570.508 487.056 595.906 505.517 603.795 537.069 c 0
 609.593 560.262 606.621 581.678 596.622 598.997 c 0
 576.656 633.578 531.766 648.186 490.115 643.513 c 0
 456.42 639.732 432.959 628.745 420.644 621.635 c 0
 353.43 582.829 260.09 463.016 200.877 226.159 c 0
 197.447 212.443 174.924 193.534 150.601 183.952 c 0
 126.276 174.37 109.319 177.725 112.748 191.44 c 0
 189.236 497.4 317.505 607.579 400.945 655.753 c 0
 451.383 684.873 500.017 698.934 541.456 703.583 c 0
 611.511 711.443 662.069 686.077 683.415 649.106 c 0
 695.466 628.234 699.548 602.283 691.924 571.787 c 0
 678.92 519.771 627.421 474.423 567.063 439.575 c 0
 546.137 427.493 523.297 416.325 500.231 406.157 c 1
 566.127 394.396 615.89 361.831 641.242 317.92 c 0
 660.992 283.713 667.457 241.22 655.086 191.733 c 0
 639.505 129.408 589.76 77.3359 524.072 39.4121 c 0
 445.261 -6.08984 359.854 -20.6914 297.749 -20.6914 c 0
 276.137 -20.6914 196.736 -19.2812 139.281 41.8008 c 0
 131.66 49.9033 144.428 68.3594 167.779 82.999 c 0
 191.132 97.6377 216.269 102.943 223.89 94.8408 c 0
 265.29 50.8271 320.514 39.9307 358.404 39.9307 c 0
EndSplineSet
Fore
696 601 m 0
 696 562 678 484 500 406 c 1
 583 391 661 336 661 241 c 0
 661 84 468 -21 298 -21 c 0
 195 -21 137 38 137 48 c 0
 137 66 183 99 212 99 c 0
 217 99 221 97 224 95 c 1
 265 51 321 40 358 40 c 0
 448 40 572 71 572 197 c 0
 572 301 478 350 383 350 c 0
 349 350 337 345 326 345 c 0
 317 345 312 349 312 354 c 0
 312 364 329 389 368 402 c 0
 540 460 607 492 607 559 c 0
 607 610 564 644 505 644 c 0
 476 644 446 636 421 622 c 0
 353 583 260 463 201 226 c 0
 184 157 156 88 119 21 c 0
 109 3 71 -21 47 -21 c 0
 38 -21 33 -17 33 -11 c 0
 33 1 81 63 113 191 c 0
 149 337 177 483 196 627 c 1
 172 615 l 2
 159 609 147 605 138 605 c 0
 132 605 124 607 124 615 c 0
 124 627 142 645 165 656 c 2
 240 694 l 2
 253 701 265 704 274 704 c 0
 283 704 288 701 288 694 c 0
 288 689 274 588 265 534 c 1
 382 686 517 705 567 705 c 0
 643 705 696 663 696 601 c 0
EndSplineSet
EndChar
StartChar: C
Encoding: 67 67 4
Width: 559
Flags: HMW
Back
464.017 560.55 m 0
 470.778 578.118 474.624 603.178 464.086 621.43 c 0
 459.845 628.775 453.519 634.174 446.021 637.068 c 0
 440.491 639.204 428.323 643.236 412.411 643.236 c 0
 353.651 643.237 310.491 628.545 280.538 611.251 c 0
 223.22 578.159 151.896 497.801 117.181 358.942 c 0
 95.1475 270.812 100.795 183.577 136.021 122.563 c 0
 175.626 53.9658 238.448 42.4961 256.351 39.5957 c 0
 304.325 31.8223 346.606 44.9736 374.577 61.123 c 0
 396.274 73.6494 422.099 94.9189 444.944 128.15 c 0
 455.987 144.214 482.757 161.051 504.699 165.731 c 0
 526.641 170.413 535.486 161.176 524.443 145.112 c 0
 480.778 81.5947 424.029 44.1826 394.275 27.0049 c 0
 323.804 -13.6816 249.32 -30.502 186.715 -20.3574 c 0
 104.141 -6.97754 65.9746 43.4492 49.2285 72.4541 c 0
 11.2139 138.296 5.43359 229.754 29.0518 324.225 c 0
 78.3604 521.458 198.259 609.238 260.84 645.369 c 0
 331.689 686.274 404.188 703.859 473.068 703.858 c 0
 492.028 703.858 508.42 700.7 522.803 695.146 c 0
 536.105 690.009 545.021 681.686 550.879 671.539 c 0
 559.617 656.404 565.041 627.997 550.685 590.692 c 0
 537.418 556.221 520.596 522.058 500.243 488.606 c 0
 490.68 472.89 464.556 455.478 441.929 449.74 c 0
 419.303 444.004 408.701 452.104 418.265 467.822 c 0
 436.363 497.567 451.762 528.706 464.017 560.55 c 0
EndSplineSet
Fore
415 458 m 0
 415 469 470 542 470 597 c 0
 470 634 440 643 412 643 c 0
 354 643 310 629 281 611 c 0
 181 554 104 395 104 257 c 0
 104 87 213 37 285 37 c 0
 342 37 401 64 445 128 c 0
 458 147 493 167 515 167 c 0
 524 167 529 163 529 157 c 0
 529 154 528 150 524 145 c 0
 457 47 332 -23 222 -23 c 0
 103 -23 16 60 16 217 c 0
 16 454 207 704 473 704 c 0
 518 704 559 688 559 637 c 0
 559 609 546 564 500 489 c 0
 489 470 453 448 429 448 c 0
 420 448 415 451 415 458 c 0
EndSplineSet
EndChar
StartChar: D
Encoding: 68 68 5
Width: 821
Flags: HMW
Back
244.931 324.224 m 0
 270.788 427.654 286.827 530.972 292.792 632.736 c 0
 293.529 645.317 314.055 664.48 338.607 675.511 c 0
 363.161 686.541 382.489 685.283 381.752 672.702 c 0
 375.695 569.368 359.406 464.333 333.059 358.942 c 0
 306.711 253.551 270.425 148.277 224.593 44.4414 c 0
 218.042 29.5996 193.512 11.2852 169.837 3.56055 c 0
 146.162 -4.16406 132.266 1.61133 138.816 16.4531 c 0
 183.512 117.715 219.073 220.795 244.931 324.224 c 0
284.855 60.7588 m 2
 356.046 60.7588 462.997 75.7188 556.387 129.638 c 0
 680.025 201.02 708.272 302.725 715.202 330.443 c 0
 733.161 402.279 726.61 459.979 700.854 504.593 c 0
 654.693 584.542 546.538 622.408 406.587 622.408 c 2
 306.944 622.408 l 2
 288.968 622.408 287.966 635.987 304.707 652.72 c 0
 321.448 669.451 349.624 683.03 367.6 683.03 c 2
 467.243 683.03 l 2
 619.711 683.03 737.289 641.921 787.646 554.702 c 0
 815.729 506.062 822.808 443.066 803.331 365.162 c 0
 776.827 259.145 695.4 164.405 576.085 95.5195 c 0
 461.444 29.3311 334.354 0.136719 224.199 0.136719 c 2
 106.676 0.136719 l 2
 88.7002 0.136719 87.6982 13.7158 104.439 30.4473 c 0
 121.18 47.1787 149.356 60.7588 167.332 60.7588 c 2
 284.855 60.7588 l 2
153.463 591.69 m 0
 145.843 587.29 138.929 581.869 132.638 574.691 c 0
 116.804 556.625 111.729 535.866 110.569 531.226 c 0
 107.141 517.51 84.6162 498.601 60.293 489.019 c 0
 35.9697 479.437 19.0117 482.791 22.4404 496.508 c 0
 28.6084 521.179 40.5107 544.382 60.9766 567.733 c 0
 79.3027 588.644 105.622 609.561 133.765 625.809 c 0
 144.479 631.994 140.91 629.833 142.709 630.805 c 0
 183.54 652.866 258.351 683.03 367.6 683.03 c 0
 385.576 683.03 386.578 669.451 369.837 652.72 c 0
 353.096 635.987 324.92 622.408 306.944 622.408 c 0
 236.507 622.408 183.173 607.791 156.14 593.185 c 0
 156.081 593.153 196.317 616.432 153.463 591.69 c 0
EndSplineSet
Fore
285 61 m 2
 524 61 725 199 725 407 c 0
 725 566 574 622 407 622 c 2
 378 622 l 1
 359 415 302 223 232 61 c 1
 285 61 l 2
814 448 m 0
 814 180 495 0 224 0 c 2
 107 0 l 2
 97 0 93 4 93 9 c 0
 93 25 125 55 157 60 c 1
 225 224 279 415 292 622 c 1
 204 619 162 597 153 592 c 0
 96 558 135 518 60 489 c 0
 51 485 43 484 36 484 c 0
 27 484 22 487 22 493 c 0
 22 508 50 578 138 629 c 0
 180 651 258 683 368 683 c 2
 467 683 l 2
 649 683 814 621 814 448 c 0
EndSplineSet
EndChar
StartChar: E
Encoding: 69 69 6
Width: 560
Flags: HMW
Back
493.346 566.413 m 0
 500.942 579.52 503.73 598.19 494.647 613.923 c 0
 489.954 622.052 482.348 628.282 473.655 631.422 c 0
 451.699 639.353 427.941 643.237 404.236 643.237 c 0
 355.467 643.237 317.525 629.723 296.641 617.665 c 0
 289.25 613.398 285.104 610.159 282.586 608.172 c 0
 268.12 596.759 248.752 575.008 240.502 542.005 c 0
 233.898 515.592 237.144 492.701 248.155 473.629 c 0
 276.688 424.21 351.568 406.055 416.435 406.055 c 0
 434.411 406.055 435.413 392.476 418.672 375.744 c 0
 401.932 359.013 373.755 345.434 355.779 345.433 c 0
 271.147 345.433 191.974 370.5 161.362 423.52 c 0
 148.346 446.065 144.01 473.836 152.373 507.287 c 0
 160.547 539.984 182.597 582.229 234.003 622.788 c 0
 247.263 633.251 261.885 643.09 276.941 651.783 c 0
 342.347 689.545 410.555 703.859 464.893 703.859 c 0
 496.103 703.859 524.425 698.902 549.841 689.722 c 0
 564.698 684.355 574.943 675.284 581.44 664.032 c 0
 589.242 650.519 596.436 623.592 576.116 588.53 c 0
 573.875 584.664 571.519 580.803 569.044 576.948 c 0
 558.854 561.077 532.444 543.897 510.094 538.602 c 0
 487.743 533.305 477.873 541.888 488.063 557.759 c 0
 489.88 560.588 491.643 563.475 493.346 566.413 c 0
229.191 312.422 m 0
 188.455 288.902 140.767 242.894 123.399 173.426 c 0
 116.771 146.916 120.149 123.411 131.427 103.878 c 0
 155.56 62.0801 214.548 39.9297 277.903 39.9297 c 0
 306.562 39.9297 341.696 46.3242 375.438 65.8057 c 0
 391.479 75.0664 419.007 94.1484 445.508 129.653 c 0
 457.661 145.936 484.85 162.276 506.197 166.128 c 0
 527.544 169.979 535.005 159.891 522.852 143.608 c 0
 476.854 81.9824 420.209 46.1631 395.138 31.6875 c 0
 332.698 -4.3623 270.368 -20.6924 217.247 -20.6924 c 0
 138.861 -20.6924 71.7529 6.79785 44.6338 53.7686 c 0
 31.3643 76.752 26.8447 105.002 35.2705 138.708 c 0
 54.4238 215.319 114.578 291.74 209.493 346.54 c 0
 279.798 387.13 352.866 406.055 416.436 406.055 c 0
 434.411 406.055 435.413 392.476 418.672 375.744 c 0
 401.931 359.013 373.755 345.433 355.779 345.433 c 0
 320.405 345.433 272.886 337.648 229.191 312.422 c 0
EndSplineSet
Fore
484 547 m 0
 484 556 500 570 500 594 c 0
 500 613 488 626 474 631 c 0
 452 639 428 643 404 643 c 0
 306 643 237 592 237 516 c 0
 237 449 309 406 416 406 c 0
 426 406 430 402 430 397 c 0
 430 380 391 345 356 345 c 0
 205 345 120 224 120 147 c 0
 120 80 190 40 278 40 c 0
 309 40 384 47 446 130 c 0
 459 148 494 167 515 167 c 0
 524 167 529 163 529 157 c 0
 529 132 386 -21 217 -21 c 0
 134 -21 31 15 31 105 c 0
 31 164 85 288 242 364 c 1
 189 382 148 417 148 474 c 0
 148 587 303 704 465 704 c 0
 516 704 590 693 590 634 c 0
 590 585 541 537 498 537 c 0
 489 537 484 541 484 547 c 0
EndSplineSet
EndChar
StartChar: F
Encoding: 70 70 7
Width: 756
Flags: HMW
Back
111.686 79.5273 m 0
 133.116 42.4082 172.094 26.665 209.062 27.5264 c 0
 211.816 27.5898 212.975 27.9053 213.132 27.9385 c 0
 213.841 28.0908 211.215 27.2158 209.581 26.2725 c 1
 209.788 26.4092 220.735 35.4922 231.12 54.1289 c 0
 278.6 139.333 319.248 226.951 352.467 315.891 c 0
 391.816 421.246 419.938 527.943 436.22 633.954 c 0
 438.237 647.094 459.744 666.164 484.225 676.522 c 0
 508.706 686.882 526.937 684.625 524.919 671.485 c 0
 508.327 563.458 479.648 454.5 439.292 346.449 c 0
 405.268 255.353 363.529 165.307 314.462 77.252 c 0
 286.457 26.9951 249.78 5.72363 229.279 -7.8457 c 1
 203.428 -22.7705 182.867 -28.166 173.338 -30.2158 c 0
 165.846 -31.8271 158.468 -32.8809 150.094 -33.0762 c 0
 73.9648 -34.8486 37.9707 6.76562 24.8926 29.418 c 0
 22.1846 34.1084 19.7627 39.041 17.6465 44.2109 c 0
 13.4941 54.3516 29.7744 73.3828 53.9854 86.6914 c 0
 78.1953 100 101.214 102.571 105.366 92.4307 c 0
 107.216 87.9121 109.329 83.6084 111.686 79.5273 c 0
778.433 608.174 m 0
 771.69 619.852 744.693 622.408 696.91 622.408 c 2
 391.413 622.408 l 2
 353.063 622.408 323.624 611.561 308.522 603.444 c 0
 308.404 603.381 335.686 619.187 305.558 601.792 c 0
 299.125 598.078 293.295 593.883 287.387 588.434 c 0
 275.25 577.238 260.422 557.448 253.867 531.226 c 0
 250.438 517.51 227.914 498.601 203.591 489.019 c 0
 179.268 479.437 162.31 482.791 165.738 496.508 c 0
 171.678 520.265 186.607 555.732 227.158 593.136 c 0
 241.37 606.245 260.84 621.466 285.859 635.91 c 0
 293.392 640.259 293.625 640.276 295.581 641.327 c 0
 353.28 672.34 408.831 683.03 452.068 683.03 c 2
 757.566 683.03 l 2
 790.271 683.03 850.173 684.354 865.225 658.283 c 0
 869.106 651.562 870.21 642.844 867.551 632.205 c 0
 864.122 618.489 841.598 599.58 817.274 589.998 c 0
 792.951 580.416 775.993 583.771 779.422 597.487 c 0
 780.344 601.175 780.382 604.797 778.433 608.174 c 0
643.827 301.17 m 1
 365.862 301.17 l 2
 348.071 301.17 347.079 314.609 363.647 331.169 c 0
 380.217 347.729 408.104 361.169 425.896 361.169 c 2
 703.86 361.169 l 2
 714.918 361.169 719.564 356.788 717.455 348.351 c 2
 714.938 338.283 l 2
 711.545 324.708 689.253 305.993 665.179 296.51 c 0
 641.104 287.025 624.32 290.347 627.715 303.922 c 2
 630.231 313.989 l 1
 640.824 320.776 652.466 323.414 656.219 319.876 c 0
 659.971 316.338 654.42 307.957 643.827 301.17 c 1
EndSplineSet
Fore
779 594 m 0
 779 597 780 599 780 602 c 0
 780 618 754 622 697 622 c 2
 517 622 l 1
 499 529 474 441 445 361 c 1
 704 361 l 2
 715 361 720 357 717 348 c 2
 715 338 l 2
 709 315 663 291 640 291 c 0
 632 291 627 294 627 301 c 1
 422 301 l 1
 387 215 349 140 314 77 c 0
 281 17 210 -33 140 -33 c 0
 56 -33 17 35 17 48 c 0
 17 68 64 99 92 99 c 0
 99 99 104 97 105 92 c 1
 129 34 185 28 206 28 c 2
 211 28 l 1
 234 48 306 193 352 316 c 0
 390 417 418 520 434 622 c 1
 391 622 l 2
 336 622 272 602 254 531 c 0
 248 508 201 484 178 484 c 0
 170 484 165 486 165 493 c 0
 165 494 165 495 166 497 c 1
 182 560 236 607 286 636 c 2
 296 641 l 2
 353 672 409 683 452 683 c 2
 776 683 l 2
 813 683 869 680 869 643 c 0
 869 606 811 585 792 585 c 0
 784 585 779 587 779 594 c 0
EndSplineSet
EndChar
StartChar: G
Encoding: 71 71 8
Width: 629
Flags: HMW
Back
534.863 567.787 m 0
 545.887 589.299 539.129 606.649 535.189 613.475 c 0
 532.608 617.944 526.043 626.861 513.571 630.794 c 0
 487.14 639.128 458.922 643.236 430.47 643.236 c 0
 357.199 643.236 310.016 622.81 285.22 608.493 c 0
 235.616 579.854 174.35 515.388 146.382 403.518 c 0
 127.934 329.723 134.669 257.954 164.286 206.656 c 0
 191.889 158.849 237.497 131.271 293.512 129.054 c 0
 332.005 127.53 363.254 138.272 386.557 151.727 c 0
 428.353 175.856 487.781 235.646 509.925 324.224 c 0
 513.354 337.94 535.878 356.849 560.201 366.431 c 0
 584.525 376.014 601.482 372.658 598.054 358.942 c 0
 577.225 275.626 514.419 180.056 406.255 117.608 c 0
 344.943 82.21 283.671 66.3672 230.244 68.4824 c 0
 155.362 71.4463 105.697 107.698 77.4932 156.547 c 0
 45.3047 212.299 38.1055 288.208 58.2529 368.799 c 0
 99.168 532.456 210.718 610.971 265.521 642.611 c 0
 343.811 687.812 421.725 703.858 491.125 703.858 c 0
 526.239 703.858 558.784 698.887 588.553 689.5 c 0
 604.511 684.469 615.26 675.228 621.981 663.584 c 0
 629.441 650.664 636.153 625.851 619.25 592.864 c 0
 603.355 561.845 582.709 531.453 556.705 502.187 c 0
 541.919 485.545 513.999 470.631 494.384 468.896 c 0
 474.769 467.16 470.85 479.258 485.636 495.899 c 0
 504.378 516.992 521.382 541.477 534.863 567.787 c 0
300.84 -57.2686 m 0
 305.014 -57.2686 315.678 -57.1455 327.16 -54.8105 c 0
 335.833 -53.0469 342.374 -50.6133 347.446 -47.6855 c 0
 356.562 -42.4229 358.156 -40.0537 361.338 -37.1641 c 0
 436.18 30.8115 480.093 204.895 509.925 324.224 c 0
 513.354 337.94 535.878 356.849 560.201 366.431 c 0
 584.525 376.014 601.482 372.658 598.054 358.942 c 0
 546.927 154.432 505.896 34.7197 420.538 -42.8076 c 0
 405.729 -56.2578 387.759 -69.9023 367.145 -81.8037 c 0
 340.022 -97.4629 311.073 -108.154 285.887 -113.274 c 0
 270.006 -116.503 255.01 -117.891 240.184 -117.891 c 0
 153.48 -117.891 94.4863 -92.9062 64.3174 -77.0215 c 0
 53.2773 -71.209 62.126 -53.7578 84.0693 -38.0684 c 0
 106.013 -22.3789 132.782 -14.3633 143.822 -20.1758 c 0
 190.749 -44.8838 245.061 -57.2686 300.84 -57.2686 c 0
EndSplineSet
Fore
134 -18 m 0
 150 -18 196 -57 301 -57 c 0
 340 -57 353 -45 361 -37 c 0
 405 2 438 78 464 157 c 1
 395 102 312 68 238 68 c 0
 130 68 48 142 48 283 c 0
 48 498 241 704 491 704 c 0
 526 704 559 699 589 690 c 0
 612 682 630 661 630 633 c 0
 630 592 579 527 557 502 c 0
 545 489 514 469 491 469 c 0
 482 469 477 472 477 478 c 0
 477 494 541 550 541 592 c 0
 541 612 528 626 514 631 c 0
 487 639 459 643 430 643 c 0
 357 643 310 623 285 608 c 0
 198 558 136 434 136 323 c 0
 136 199 209 129 300 129 c 0
 426 129 494 259 510 324 c 0
 516 348 563 372 586 372 c 0
 593 372 599 369 599 363 c 0
 599 362 598 360 598 359 c 0
 553 180 508 0 367 -82 c 0
 338 -99 293 -118 240 -118 c 0
 153 -118 94 -93 64 -77 c 0
 61 -75 59 -72 59 -69 c 0
 59 -52 107 -18 134 -18 c 0
EndSplineSet
EndChar
StartChar: H
Encoding: 72 72 9
Width: 901
Flags: HMW
Back
284.9 370.061 m 0
 302.069 438.732 313.284 507.339 318.405 575.072 c 0
 319.151 584.943 317.08 594.173 312.73 601.706 c 0
 303.795 617.183 287.861 622.414 276.462 622.408 c 0
 267.831 622.404 219.201 622.775 181.225 605.043 c 0
 178.074 603.572 175.24 602.091 172.51 600.514 c 0
 165.816 596.649 163.765 594.92 161.774 593.438 c 0
 130.776 570.372 111.04 532.653 107.468 525.955 c 0
 99.2842 510.611 73.8457 492.743 50.6846 486.07 c 0
 27.5234 479.397 15.3682 486.435 23.5518 501.778 c 0
 38.9082 530.57 66.7422 573.6 118.194 611.889 c 0
 129.079 619.988 140.771 627.68 152.812 634.632 c 0
 162.015 639.945 171.401 644.819 180.741 649.181 c 0
 243.106 678.301 299.475 683.011 337.081 683.03 c 0
 374.562 683.05 392.282 664.358 399.523 651.815 c 0
 405.504 641.457 408.423 628.977 407.337 614.625 c 0
 402.105 545.435 390.646 475.241 373.029 404.778 c 0
 339.538 270.812 296.155 136.955 243.198 4.26562 c 0
 237.371 -10.334 213.275 -28.8164 189.412 -36.9893 c 0
 165.55 -45.1631 150.911 -39.9473 156.738 -25.3477 c 0
 208.94 105.45 251.793 237.628 284.9 370.061 c 0
699.325 266.511 m 0
 681.846 196.593 670.367 126.742 665.029 57.7646 c 0
 664.256 47.7607 666.337 38.3682 670.711 30.792 c 0
 679.165 16.1494 694.283 10.7705 705.384 11.2686 c 0
 728.967 12.3271 757.344 15.3721 769.607 20.71 c 0
 769.609 20.71 768.139 19.9238 768.15 19.9316 c 1
 766.246 18.832 763.143 16.585 762.668 15.9922 c 1
 763.671 17.2471 766.896 21.4688 769.297 31.0742 c 0
 772.727 44.79 795.25 63.6992 819.574 73.2812 c 0
 843.897 82.8633 860.855 79.5088 857.426 65.792 c 0
 852.279 45.2061 841.042 31.1436 837.848 27.1475 c 0
 819.39 4.05957 793.323 -11.0264 787.849 -14.1865 c 0
 777.421 -20.208 769.086 -23.9551 764.442 -25.9766 c 0
 740.536 -36.3809 707.181 -46.624 648.088 -49.2764 c 0
 613.45 -50.8301 593.266 -35.5068 583.918 -19.3174 c 0
 577.886 -8.86816 574.979 3.76855 576.101 18.2549 c 0
 581.55 88.6787 593.274 160.102 611.197 231.792 c 0
 645.152 367.61 688.993 503.318 742.414 637.873 c 0
 748.205 652.461 772.279 670.951 796.151 679.146 c 0
 820.022 687.341 834.696 682.152 828.905 667.564 c 0
 776.223 534.869 732.902 400.815 699.325 266.511 c 0
174.05 277.423 m 2
 156.259 277.423 155.267 290.863 171.836 307.423 c 0
 188.405 323.982 216.292 337.422 234.083 337.422 c 2
 655.75 337.421 l 2
 673.541 337.421 674.533 323.981 657.964 307.422 c 0
 641.395 290.861 613.508 277.422 595.717 277.422 c 2
 174.05 277.423 l 2
EndSplineSet
Fore
155 -32 m 0
 155 -25 211 104 260 277 c 1
 174 277 l 2
 165 277 161 281 161 286 c 0
 161 303 199 337 234 337 c 2
 276 337 l 1
 302 438 319 544 319 579 c 0
 319 605 299 622 276 622 c 0
 176 622 139 585 107 526 c 0
 98 507 60 484 35 484 c 0
 26 484 21 487 21 493 c 0
 21 496 22 499 24 502 c 0
 79 607 193 683 337 683 c 0
 383 683 408 655 408 620 c 0
 408 565 381 431 355 337 c 1
 639 337 l 1
 682 486 731 610 742 638 c 0
 752 662 795 683 817 683 c 0
 825 683 830 680 830 674 c 0
 830 672 830 670 829 668 c 0
 745 456 665 176 665 54 c 0
 665 29 683 11 704 11 c 0
 719 11 750 15 764 19 c 1
 769 30 773 55 820 73 c 0
 829 77 837 79 844 79 c 0
 852 79 858 75 858 69 c 0
 858 51 831 3 764 -26 c 0
 754 -30 701 -50 654 -50 c 0
 588 -50 576 -12 576 12 c 0
 576 63 601 194 625 284 c 1
 615 280 605 277 596 277 c 2
 338 277 l 1
 298 141 254 31 243 4 c 0
 234 -20 191 -41 168 -41 c 0
 161 -41 155 -38 155 -32 c 0
EndSplineSet
EndChar
StartChar: I
Encoding: 73 73 10
Width: 583
Flags: HMW
Back
343.185 622.408 m 2
 257.47 622.408 196.546 620.502 153.878 606.795 c 0
 145.52 604.109 140.823 601.74 139.27 600.844 c 0
 133.84 597.709 128.54 588.929 127.51 587.164 c 0
 124.09 581.308 120.691 573.406 118.313 563.895 c 0
 114.885 550.179 92.3613 531.27 68.0371 521.688 c 0
 43.7139 512.105 26.7559 515.461 30.1855 529.177 c 0
 33.3008 541.641 37.9609 553.439 44.8555 565.246 c 0
 65.5439 600.674 100.06 623.696 119.571 634.961 c 0
 140.229 646.888 160.206 654.979 178.415 660.829 c 0
 254.92 685.406 353.979 683.03 403.841 683.03 c 2
 657.771 683.03 l 2
 675.747 683.03 676.749 669.451 660.008 652.719 c 0
 643.267 635.987 615.091 622.408 597.115 622.408 c 2
 343.185 622.408 l 2
174.605 63.7197 m 0
 176.623 64.8848 182.308 70.25 186.937 75.6504 c 0
 232.038 128.266 259.076 235.844 281.171 324.225 c 0
 325.209 500.372 355.176 585.484 420.989 638.849 c 0
 429.171 645.482 438.898 652.361 449.761 658.632 c 0
 476.339 673.978 498.323 679.147 507.959 680.904 c 0
 515.344 682.252 522.519 683.03 530.807 683.03 c 0
 548.782 683.03 549.784 669.451 533.043 652.72 c 0
 516.303 635.988 488.126 622.408 470.15 622.408 c 0
 467.183 622.408 465.008 622.108 464.156 621.953 c 0
 463.051 621.751 465.978 622.504 469.459 624.514 c 1
 469.446 624.507 472.169 626.312 471.802 626.015 c 0
 421.325 585.086 374.904 381.359 369.3 358.942 c 0
 334.735 220.686 309.35 141.804 259.518 83.6699 c 0
 244.468 66.1113 223.871 46.6719 194.304 29.6016 c 0
 190.701 27.5215 184.455 24.1875 181.975 22.9355 c 0
 164.786 14.2578 132.454 0.136719 92.3906 0.136719 c 0
 74.415 0.136719 73.4131 13.7158 90.1543 30.4473 c 0
 106.896 47.1787 135.071 60.7588 153.047 60.7588 c 0
 159.208 60.7588 170.665 61.7354 174.748 63.7969 c 0
 174.757 63.8018 160.195 55.4004 174.605 63.7197 c 0
438.726 60.7578 m 2
 454.869 60.7578 467.011 62.7998 474.946 64.6338 c 0
 478.062 65.3525 486.029 67.3145 489.491 69.3125 c 0
 489.604 69.3779 487.997 68.2588 488.004 68.2656 c 0
 491.452 71.5615 494.913 79.375 496.347 85.1113 c 0
 499.776 98.8271 522.3 117.736 546.623 127.318 c 0
 570.947 136.9 587.905 133.546 584.476 119.83 c 0
 581.048 106.117 572.782 86.9922 550.504 65.6963 c 0
 540.812 56.4316 526.866 45.4004 509.189 35.1943 c 0
 482.708 19.9062 456.283 11.3438 437.23 6.94238 c 0
 415.932 2.02246 396.458 0.136719 378.069 0.135742 c 2
 -2.83496 0.136719 l 2
 -20.8105 0.136719 -21.8125 13.7158 -5.07129 30.4473 c 0
 11.6689 47.1787 39.8457 60.7588 57.8213 60.7588 c 2
 438.726 60.7578 l 2
EndSplineSet
Fore
343 622 m 2
 258 622 172 620 139 601 c 0
 113 586 134 548 68 522 c 0
 59 518 50 516 44 516 c 0
 35 516 30 520 30 526 c 0
 30 549 68 625 178 661 c 0
 243 681 322 683 376 683 c 2
 658 683 l 2
 667 683 671 679 671 674 c 0
 671 657 633 622 597 622 c 2
 468 622 l 1
 419 574 375 381 369 359 c 0
 340 241 312 130 237 61 c 1
 439 61 l 2
 463 61 482 65 489 69 c 1
 497 78 494 107 547 127 c 0
 556 131 564 133 571 133 c 0
 580 133 585 129 585 123 c 0
 585 93 512 0 378 0 c 2
 -3 0 l 2
 -12 0 -16 4 -16 9 c 0
 -16 26 22 61 58 61 c 2
 153 61 l 2
 173 61 176 63 187 76 c 0
 286 192 278 491 404 622 c 1
 343 622 l 2
EndSplineSet
EndChar
StartChar: J
Encoding: 74 74 11
Width: 719
Flags: HMW
Back
575.345 622.408 m 2
 543.229 622.408 496.036 615.573 454.408 591.539 c 0
 420.808 572.141 380.571 534.212 365.74 474.889 c 0
 362.312 461.173 339.788 442.264 315.465 432.682 c 0
 291.141 423.1 274.183 426.454 277.612 440.17 c 0
 296.05 513.922 355.453 579.898 434.71 625.657 c 0
 505.034 666.26 576.797 683.03 636.001 683.03 c 2
 866.476 683.03 l 2
 884.451 683.03 885.453 669.451 868.712 652.72 c 0
 851.971 635.988 823.795 622.408 805.819 622.408 c 2
 575.345 622.408 l 2
154.48 14.5283 m 0
 181.188 -31.7314 236.118 -57.2686 296.134 -57.2686 c 0
 320.798 -57.2686 350.888 -51.9697 379.794 -35.2803 c 0
 417.199 -13.6846 471.11 39.415 491.074 119.272 c 0
 548.014 347.029 595.89 516.629 697.26 609.858 c 0
 714.813 626.002 733.007 639.034 750.991 649.416 c 0
 798.472 676.829 837.217 680.816 838.044 680.938 c 0
 847.883 682.383 857.282 683.03 866.476 683.03 c 0
 884.451 683.03 885.453 669.451 868.712 652.72 c 0
 851.971 635.988 823.795 622.408 805.819 622.408 c 0
 798.854 622.408 793.579 621.816 790.245 621.326 c 0
 778.814 619.647 773.033 616.651 770.689 615.299 c 0
 768.083 613.794 763.721 610.888 757.296 604.979 c 0
 664.293 519.445 604.24 254.14 579.203 153.99 c 0
 557.542 67.3457 492.098 -15.9326 399.492 -69.3984 c 0
 341.889 -102.656 284.378 -117.891 235.478 -117.891 c 0
 156.195 -117.891 95.9502 -84.5332 67.6875 -35.5811 c 0
 49.5352 -4.14062 43.4121 34.8652 54.6553 79.8389 c 0
 58.084 93.5557 80.6084 112.464 104.932 122.046 c 0
 129.255 131.629 146.213 128.273 142.784 114.558 c 0
 131.178 68.1309 142.933 34.5303 154.48 14.5283 c 0
EndSplineSet
Fore
143 118 m 0
 143 114 138 102 138 77 c 0
 138 -3 208 -57 296 -57 c 0
 413 -57 475 57 491 119 c 0
 548 340 595 526 712 622 c 1
 575 622 l 2
 483 622 391 574 366 475 c 0
 360 451 313 427 290 427 c 0
 282 427 277 430 277 436 c 0
 277 438 277 439 278 440 c 2
 310 571 480 683 636 683 c 2
 866 683 l 2
 876 683 880 679 880 674 c 0
 880 657 841 622 806 622 c 0
 780 622 769 616 757 605 c 0
 664 519 604 254 579 154 c 0
 542 5 378 -118 235 -118 c 0
 127 -118 49 -56 49 36 c 0
 49 50 51 65 55 80 c 0
 61 103 107 127 130 127 c 0
 138 127 143 125 143 118 c 0
EndSplineSet
EndChar
StartChar: K
Encoding: 75 75 12
Width: 804
Flags: HMW
Back
161.541 390.621 m 0
 181.483 470.388 193.407 550.064 197.101 628.393 c 1
 171.253 615.353 l 2
 146.769 602.999 125.291 602.133 123.311 613.418 c 0
 121.331 624.703 139.595 643.888 164.079 656.24 c 2
 238.904 693.992 l 2
 252.035 700.616 263.241 703.872 272.868 703.858 c 0
 282.495 703.845 287.153 700.567 286.987 693.924 c 0
 284.786 605.875 272.292 515.827 249.67 425.339 c 0
 216.146 291.24 172.73 157.251 119.739 24.4287 c 0
 113.915 9.8291 89.8213 -8.65332 65.957 -16.8281 c 0
 42.0938 -25.0029 27.4531 -19.7891 33.2773 -5.19043 c 0
 85.5146 125.743 128.399 258.055 161.541 390.621 c 0
694.802 636.669 m 0
 687.414 649.463 673.731 653.552 665.613 653.552 c 0
 645.397 653.552 584.819 633.75 493.472 581.011 c 0
 381.135 516.152 322.647 459.7 317.082 437.439 c 0
 310.632 411.638 337.264 316.77 404.452 200.397 c 0
 432.542 151.745 510.554 32.5566 563.744 29.6455 c 0
 563.951 29.6348 522.804 29.6152 564.803 29.6152 c 0
 610.884 29.6152 643.875 43.1582 660.167 52.5645 c 0
 682.427 65.416 696.961 83.4014 702.884 107.095 c 0
 706.135 120.096 723.546 134.548 741.75 139.354 c 0
 759.954 144.161 772.091 137.512 768.841 124.512 c 0
 758.166 81.8164 724.599 44.4717 679.779 18.5947 c 0
 631.203 -9.4502 575.508 -20.6045 530.883 -20.6045 c 0
 488.884 -20.6045 526.412 -20.4834 526.386 -20.4814 c 0
 452.096 -16.417 375.81 102.057 340.388 163.409 c 0
 294.733 242.482 238.117 367.986 251.126 420.022 c 0
 265.702 478.328 378.229 559.767 473.859 614.979 c 0
 539.276 652.748 642.146 703.771 699.533 703.771 c 0
 731.402 703.771 750.421 688.284 758.866 673.657 c 0
 766.647 660.18 769.169 643.168 764.265 623.554 c 0
 761.015 610.554 743.603 596.101 725.398 591.294 c 0
 707.194 586.487 695.059 593.137 698.309 606.138 c 0
 701.07 617.182 699.687 628.207 694.802 636.669 c 0
EndSplineSet
Fore
249 404 m 0
 249 505 594 704 700 704 c 0
 744 704 767 673 767 643 c 0
 767 609 737 589 714 589 c 0
 704 589 698 594 698 602 c 0
 698 607 700 609 700 618 c 0
 700 640 682 654 666 654 c 0
 601 654 316 493 316 428 c 0
 316 394 343 306 404 200 c 0
 433 152 512 33 565 30 c 0
 643 30 692 65 703 107 c 0
 707 124 733 141 754 141 c 0
 763 141 769 136 769 129 c 2
 769 125 l 1
 746 36 629 -21 528 -21 c 0
 413 -15 249 299 249 404 c 0
32 -11 m 0
 32 2 182 335 197 628 c 1
 171 615 l 2
 158 609 146 605 137 605 c 0
 130 605 123 607 123 615 c 0
 123 627 141 645 164 656 c 2
 239 694 l 2
 252 701 263 704 273 704 c 0
 282 704 287 701 287 694 c 0
 284 559 248 346 120 24 c 0
 110 -0 67 -21 45 -21 c 0
 37 -21 32 -18 32 -11 c 0
EndSplineSet
EndChar
StartChar: L
Encoding: 76 76 13
Width: 727
Flags: HMW
Fore
473 -21.0195 m 0
 352 -21.0195 255 34 144 34 c 0
 142 34 140 34 138 33 c 1
 111 6 75.375 -20.0195 45.375 -21.0195 c 0
 38.375 -21.0195 32 -18 32 -12 c 0
 32 -1 56 26 78 43 c 1
 118 90 150 155 170 231 c 0
 214 410 271 581 413 664 c 0
 461 691 507 704 550 704 c 0
 609 704 645 663 645 605 c 0
 645 593 644 581 641 568 c 0
 634 543 579 514 554 514 c 0
 547 514 542 516 542 522 c 0
 542 525 546 536 546 557 c 0
 546 602 520 638 477 638 c 0
 442 638 430 630 418 618 c 0
 343 547 295.235 381.941 268 273 c 0
 251 205 222 145 190 97 c 1
 199 99 209 100 217 100 c 0
 337 100 436 45 546 45 c 0
 553 45 561 46 566 48 c 1
 571 52 587 69 593 95 c 0
 600 119 655 149 680 149 c 0
 688 149 692 146 692 140 c 2
 692 137 l 1
 670 50 553 -21.0195 473 -21.0195 c 0
EndSplineSet
EndChar
StartChar: M
Encoding: 77 77 14
Width: 1258
Flags: HMW
Back
567.072 266.718 m 0
 583.099 218.229 603.683 172.18 628.587 129.044 c 2
 639.673 110.496 l 1
 608.613 81.9414 l 1
 594.224 34.2236 l 1
 587.887 34.2236 582.982 35.9453 580.554 39.5176 c 0
 570.527 54.2617 561.038 69.3896 552.095 84.8809 c 0
 526.576 129.081 505.498 176.239 489.085 225.898 c 0
 454.626 330.154 424.904 436.748 399.978 545.429 c 1
 382.705 462.862 357.834 371.864 322.321 274.289 c 0
 317.832 261.954 313.216 249.636 308.476 237.338 c 0
 268.261 133.019 197.181 -55.1318 120.983 -50.0342 c 0
 105.729 -49.0137 91.1865 -46.0088 77.6523 -41.083 c 0
 73.0322 -39.4014 68.5283 -37.4951 64.1553 -35.3652 c 0
 51.6943 -29.2959 40.707 -22.0059 32.6475 -13.0342 c 0
 24.5986 -4.07617 27.2695 23.1943 38.6084 47.8359 c 0
 49.9482 72.4775 65.6816 85.2061 73.7314 76.2471 c 0
 79.1074 70.2637 88.7822 63.4453 99.8721 58.0439 c 0
 103.748 56.1562 107.755 54.46 111.881 52.958 c 0
 123.966 48.5596 137.062 45.8457 150.805 44.9258 c 0
 185.313 42.6172 217.83 111.668 273.188 255.279 c 0
 277.358 266.097 281.413 276.918 285.354 287.744 c 0
 330.109 410.712 360.363 534.542 375.626 658.981 c 1
 375.976 658.861 l 1
 376.061 658.861 l 1
 376.006 670.05 391.202 686.264 411.58 696.243 c 0
 433.272 706.867 452.663 706.423 454.861 695.252 c 0
 483.715 548.644 521.171 405.597 567.072 266.718 c 0
1096.2 204.561 m 0
 1092.02 153.993 1093.07 104.36 1099.31 56.4248 c 0
 1099.84 52.3691 1101.08 48.7324 1102.88 45.6162 c 0
 1109.45 34.2314 1120.58 32.8398 1124.55 32.748 c 1
 1135.57 38.3076 l 2
 1160.05 50.6611 1181.53 51.5273 1183.51 40.2422 c 0
 1185.49 28.957 1167.22 9.77344 1142.74 -2.58008 c 2
 1126.4 -10.8252 l 2
 1121.25 -13.4248 1097.92 -25.2412 1072.38 -27.5186 c 0
 1039.05 -30.4883 1023.2 -16.8193 1016.09 -4.49316 c 0
 1013.23 0.449219 1011.3 6.10742 1010.48 12.4756 c 0
 1004.05 61.7998 1002.96 112.932 1007.28 165.181 c 0
 1018.29 298.492 1036.38 432.857 1061.47 567.763 c 1
 1140.08 656.214 l 1
 1165.22 683.172 l 1
 1165.21 682.383 1165.12 681.547 1164.94 680.666 c 0
 1132.18 521.132 1109.22 362.133 1096.2 204.561 c 0
782.672 293.152 m 0
 904.157 424.423 1022.79 557.909 1138.46 693.472 c 0
 1152.34 709.735 1164.32 706.243 1165.22 685.677 c 0
 1166.11 665.109 1155.57 635.219 1141.7 618.956 c 0
 1025 482.182 905.372 347.589 782.943 215.299 c 0
 726.513 154.322 667.42 95.8896 605.921 40.2051 c 0
 592.095 27.6875 582.081 36.2256 583.567 59.2637 c 0
 585.054 82.3027 597.48 111.16 611.306 123.678 c 0
 671.099 177.817 728.321 234.425 782.672 293.152 c 0
EndSplineSet
Fore
124 -50 m 0
 88 -50 27 -26 27 4 c 0
 27 33 51 79 67 79 c 0
 73 79 101 45 152 45 c 0
 186 45 219 114 273 255 c 2
 285 288 l 2
 330 411 360 535 376 659 c 0
 376 677 414 704 440 704 c 0
 448 704 454 701 455 695 c 0
 484 549 521 406 567 267 c 0
 582 221 602 177 625 136 c 1
 680 186 732 239 783 293 c 2
 1138 693 l 2
 1144 700 1150 704 1154 704 c 0
 1161 704 1165 696 1165 683 c 0
 1165 669 1120 495 1096 205 c 0
 1095 185 1094 163 1094 143 c 0
 1094 62 1098 33 1125 33 c 1
 1136 38 l 2
 1149 45 1161 48 1169 48 c 0
 1176 48 1184 46 1184 39 c 0
 1184 27 1166 9 1143 -3 c 2
 1126 -11 l 2
 1103 -23 1081 -28 1064 -28 c 0
 1033 -28 1014 -12 1010 12 c 0
 1007 42 1005 72 1005 103 c 0
 1005 186 1028 375 1053 519 c 1
 783 215 l 2
 727 154 667 96 606 40 c 0
 602 36 598 34 594 34 c 0
 585 34 581 35 552 85 c 0
 527 129 505 176 489 226 c 0
 455 330 425 437 400 545 c 1
 383 463 358 372 322 274 c 2
 308 237 l 2
 269 134 199 -50 124 -50 c 0
EndSplineSet
EndChar
StartChar: N
Encoding: 78 78 15
Width: 867
Flags: HMW
Back
839.61 644.791 m 1
 837.901 641.107 834.971 634.22 830.655 622.361 c 0
 816.856 584.449 803.072 536.6 786.275 477.232 c 0
 742.642 323.015 703.504 168.658 668.908 14.3174 c 1
 667.763 17.1455 l 1
 627.475 17.1455 l 1
 661.899 169.098 700.641 321.182 743.647 473.182 c 0
 752.046 502.865 774.527 583.176 793.687 635.815 c 0
 797.536 646.391 805.788 668.59 815.524 687.746 c 0
 828.559 713.391 838.482 722.344 840.901 724.587 c 0
 898.113 777.623 970.241 778.447 1015.69 778.447 c 0
 1027.13 778.447 1029.99 757.167 1022.09 730.947 c 0
 1014.18 704.728 998.479 683.448 987.041 683.448 c 0
 914.98 683.448 870.777 671.687 839.61 644.791 c 1
43.6055 57.8691 m 0
 47.2842 56.1113 51.0791 54.5205 54.9766 53.1016 c 0
 67.3037 48.6152 80.665 45.8535 94.6826 44.9268 c 0
 121.733 43.1396 140.697 73.1084 167.678 147.236 c 0
 174.525 166.05 181.326 186.287 188.093 206.467 c 0
 247.304 383.06 273.84 537.385 285.202 659.162 c 1
 285.32 658.861 l 1
 330.671 658.861 l 1
 316.13 531.225 286.22 375.152 227.204 199.142 c 0
 220.428 178.933 212.981 156.681 204.646 133.781 c 0
 168.803 35.3057 122.075 -53.8135 64.876 -50.0342 c 0
 49.3398 -49.0078 34.5293 -45.9551 20.748 -40.9395 c 0
 16.3906 -39.3535 12.1357 -37.5703 7.99414 -35.5918 c 0
 4.52832 -33.9355 -12.9502 -25.5225 -24.2959 -13.0967 c 0
 -32.3887 -4.2334 -29.7783 22.9873 -18.4707 47.6631 c 0
 -7.16309 72.3398 8.58203 85.1738 16.6748 76.3105 c 0
 22.2412 70.2139 32.2158 63.3105 43.6055 57.8691 c 0
546.345 224.081 m 0
 560.759 191.952 576.695 160.769 594.109 130.606 c 0
 615.75 93.123 639.673 57.2168 665.788 23.0322 c 0
 672.449 14.3145 661.004 -3.08008 640.243 -15.7939 c 0
 619.481 -28.5078 597.226 -31.751 590.564 -23.0332 c 0
 563.977 11.7695 539.634 48.3096 517.616 86.4434 c 0
 499.9 117.13 483.69 148.849 469.031 181.526 c 0
 400.113 335.147 339.015 493.326 285.904 655.623 c 0
 282.455 666.161 297.13 683.846 318.659 695.097 c 0
 340.188 706.349 360.46 706.928 363.909 696.39 c 0
 416.82 534.705 477.688 377.121 546.345 224.081 c 0
EndSplineSet
Fore
285 659 m 0
 285 677 324 704 349 704 c 0
 357 704 362 701 364 696 c 0
 435 480 534 235 594 131 c 0
 608 107 622 84 638 61 c 1
 670 195 766 590 816 688 c 0
 854 764 935 778 1016 778 c 0
 1024 778 1027 771 1027 760 c 0
 1027 733 1006 683 987 683 c 0
 915 683 871 672 840 645 c 1
 813 587 726 269 669 14 c 1
 668 17 l 1
 668 -1 629 -28 604 -28 c 0
 598 -28 593 -26 591 -23 c 0
 514 76 440 216 317 562 c 1
 293 408 252 264 205 134 c 0
 170 37 124 -50 68 -50 c 0
 38 -50 -30 -30 -30 4 c 0
 -30 33 -6 79 10 79 c 0
 15 79 46 45 97 45 c 0
 129 45 149 90 188 206 c 0
 247 383 274 537 285 659 c 0
EndSplineSet
EndChar
StartChar: O
Encoding: 79 79 16
Width: 837
Flags: HMW
Back
345.298 639.223 m 0
 268.565 594.922 188.75 506.977 160.281 393.103 c 0
 137.445 301.758 147.408 214.718 184.639 150.233 c 0
 225.188 80.001 295.147 39.9297 380.843 39.9297 c 0
 439.611 39.9297 491.802 57.2109 534.016 81.584 c 0
 606.089 123.194 686.382 208.666 715.271 324.225 c 0
 737.926 414.842 731.766 503.919 696.826 564.435 c 0
 659.942 628.319 603.358 643.237 560.28 643.236 c 0
 553.444 643.236 541.005 642.981 525.927 638.655 c 0
 521.967 637.52 513.952 635.363 504.246 629.468 c 0
 440.399 590.688 399.308 500.896 389.346 478.113 c 0
 382.866 463.295 358.378 444.962 334.684 437.192 c 0
 310.99 429.423 297.019 435.144 303.498 449.962 c 0
 362.177 584.164 441.262 637.668 484.548 663.586 c 0
 510.962 679.402 536.321 688.724 555.753 694.299 c 0
 569.948 698.371 593.177 703.858 620.936 703.858 c 0
 701.955 703.858 753.742 666.292 783.619 614.544 c 0
 821.391 549.122 827.651 455.945 803.4 358.942 c 0
 773.272 238.433 682.57 121.86 553.714 47.4658 c 0
 471.851 0.202148 390.159 -20.6924 320.187 -20.6924 c 0
 212.848 -20.6914 138.461 29.7783 97.8467 100.124 c 0
 58.2266 168.745 47.543 259.947 72.1523 358.385 c 0
 102.687 480.521 195.014 597.947 325.6 673.341 c 0
 339.187 681.186 353.13 688.522 367.25 695.241 c 0
 391.808 706.927 412.203 706.692 412.776 694.718 c 0
 413.349 682.743 393.884 663.54 369.326 651.854 c 0
 361.092 647.937 353.123 643.74 345.298 639.223 c 0
EndSplineSet
Fore
59 255 m 0
 59 546 354 704 399 704 c 0
 405 704 413 702 413 694 c 0
 413 682 394 663 369 652 c 0
 231 586 148 436 148 297 c 0
 148 148 241 40 381 40 c 0
 559 40 728 209 728 427 c 0
 728 543 676 643 560 643 c 0
 532 643 514 635 504 629 c 0
 440 591 399 501 389 478 c 0
 379 454 337 434 315 434 c 0
 307 434 302 437 302 443 c 0
 302 445 302 447 303 450 c 0
 395 660 551 704 621 704 c 0
 756 704 818 599 818 471 c 0
 818 184 538 -21 320 -21 c 0
 156 -21 59 99 59 255 c 0
EndSplineSet
EndChar
StartChar: P
Encoding: 80 80 17
Width: 742
Flags: HMW
Back
238.521 298.586 m 0
 266.521 410.584 284.696 522.469 292.804 632.916 c 0
 293.733 645.583 314.41 664.735 338.956 675.667 c 0
 363.503 686.599 382.67 685.189 381.74 672.522 c 0
 373.524 560.604 355.102 447.114 326.649 333.305 c 0
 298.196 219.494 259.825 105.802 211.898 -6.54492 c 0
 205.604 -21.3027 181.224 -39.6787 157.48 -47.5635 c 0
 133.736 -55.4473 119.576 -49.8691 125.871 -35.1113 c 0
 172.805 74.9082 210.521 186.589 238.521 298.586 c 0
153.463 591.69 m 0
 145.843 587.29 138.929 581.869 132.638 574.691 c 0
 116.804 556.625 111.729 535.866 110.569 531.226 c 0
 107.141 517.51 84.6162 498.601 60.293 489.019 c 0
 35.9697 479.437 19.0117 482.791 22.4404 496.508 c 0
 28.6084 521.179 40.5107 544.382 60.9766 567.733 c 0
 79.3027 588.644 105.622 609.561 133.765 625.809 c 0
 144.479 631.994 140.91 629.833 142.709 630.805 c 0
 183.54 652.866 258.351 683.03 367.6 683.03 c 0
 385.576 683.03 386.578 669.451 369.837 652.72 c 0
 353.096 635.987 324.92 622.408 306.944 622.408 c 0
 236.507 622.408 183.173 607.791 156.14 593.185 c 0
 156.081 593.153 196.317 616.432 153.463 591.69 c 0
580.038 311.81 m 0
 662.754 359.565 681.231 430.611 685.471 447.568 c 0
 693.946 481.472 689.9 510.186 676.155 533.993 c 0
 641.133 594.653 543.706 622.408 438.709 622.408 c 2
 306.944 622.408 l 2
 288.968 622.408 287.966 635.987 304.707 652.72 c 0
 321.448 669.451 349.624 683.03 367.6 683.03 c 2
 499.365 683.03 l 2
 612.007 683.03 722.7 653.812 762.947 584.103 c 0
 778.722 556.782 783.798 523.079 773.6 482.286 c 0
 752.912 399.54 687.333 328.265 599.737 277.691 c 0
 553.646 251.08 456.492 205.089 334.378 205.089 c 0
 316.402 205.089 315.4 218.668 332.142 235.399 c 0
 348.883 252.131 377.059 265.711 395.034 265.711 c 0
 469.948 265.711 536.016 286.393 580.038 311.81 c 0
EndSplineSet
Fore
779 524 m 0
 779 374 572 205 334 205 c 0
 325 205 321 209 321 214 c 0
 321 231 359 266 395 266 c 0
 492 266 650 304 685 448 c 0
 689 460 690 471 690 482 c 0
 690 593 538 622 439 622 c 2
 377 622 l 1
 352 369 278 150 212 -7 c 0
 202 -31 159 -51 137 -51 c 0
 129 -51 124 -48 124 -42 c 0
 124 -25 262 241 292 622 c 1
 196 619 161 596 155 592 c 0
 97 558 135 518 60 489 c 0
 51 485 43 484 36 484 c 0
 27 484 22 487 22 493 c 0
 22 508 46 575 134 626 c 2
 143 631 l 2
 184 653 258 683 368 683 c 2
 499 683 l 2
 613 683 779 649 779 524 c 0
EndSplineSet
EndChar
StartChar: Q
Encoding: 81 81 18
Width: 864
Flags: HMW
Back
460.131 57.0596 m 0
 485.365 65.5537 508.397 76.124 530.188 88.7051 c 0
 625.911 143.971 690.883 234.602 713.288 324.225 c 0
 733.746 406.056 724.624 483.959 691.132 541.969 c 0
 653.868 606.511 589.057 643.237 510.742 643.237 c 0
 444.612 643.237 394.537 619.348 370.163 605.274 c 0
 308.011 569.392 237.032 495.59 211.524 393.559 c 0
 197.232 336.392 204.049 282.131 227.82 240.958 c 0
 263.205 179.671 323.964 163.229 367.442 163.229 c 0
 409.976 163.229 448.479 174.596 479.37 190.61 c 0
 503.79 203.27 525.765 204.666 528.42 193.726 c 0
 531.075 182.786 513.41 163.633 488.99 150.974 c 0
 424.252 117.411 361.134 102.607 306.786 102.607 c 0
 226.119 102.607 170.607 139.616 141.027 190.849 c 0
 121.752 224.235 103.99 281.221 123.396 358.841 c 0
 150.755 468.275 233.751 572.008 350.465 639.393 c 0
 427.91 684.106 505.193 703.859 571.398 703.859 c 0
 671.307 703.859 740.382 657.104 777.925 592.079 c 0
 813.778 529.979 823.657 447.904 801.417 358.942 c 0
 771.851 240.676 678.062 128.589 549.886 54.5869 c 0
 518.095 36.2324 480.261 18.042 438.057 3.83594 c 0
 332.133 -31.8193 231.258 -30.3115 156.606 -30.3105 c 0
 138.631 -30.3105 137.629 -16.7314 154.37 0 c 0
 171.111 16.7314 199.287 30.3115 217.263 30.3105 c 0
 318.37 30.3105 389.24 33.1973 460.131 57.0596 c 0
677.984 -66.8877 m 0
 681.468 -66.8877 691.158 -66.6494 701.376 -64.3027 c 0
 706.859 -63.043 713.703 -60.8633 718.583 -58.0459 c 0
 724.529 -54.6123 730.064 -48.4443 733.742 -43.2324 c 0
 741.48 -32.2646 744.487 -21.377 745.492 -17.3584 c 0
 748.921 -3.64258 771.445 15.2656 795.769 24.8477 c 0
 820.092 34.4307 837.05 31.0752 833.62 17.3594 c 0
 829.896 2.46094 823.138 -12.2568 812.607 -27.1816 c 0
 787.962 -62.1104 750.736 -84.9727 738.281 -92.1641 c 0
 712.586 -106.999 686.405 -116.77 663.482 -122.034 c 0
 646.991 -125.821 631.688 -127.51 617.329 -127.51 c 0
 446.449 -127.51 316.152 -30.3105 156.606 -30.3105 c 0
 138.631 -30.3105 137.629 -16.7314 154.37 0 c 0
 171.11 16.7314 199.287 30.3105 217.263 30.3105 c 0
 388.143 30.3115 518.438 -66.8877 677.984 -66.8877 c 0
EndSplineSet
Fore
813 452 m 0
 813 230 611 52 410 -5 c 1
 499 -33 583 -67 678 -67 c 0
 694 -67 733 -66 745 -17 c 0
 751 6 798 30 821 30 c 0
 829 30 834 28 834 21 c 0
 834 -22 737 -128 617 -128 c 0
 447 -128 316 -30 157 -30 c 0
 145 -30 139 -25 139 -17 c 0
 139 1 168 30 217 30 c 2
 232 30 l 2
 324 30 432 32 530 89 c 0
 656 161 725 291 725 410 c 0
 725 543 639 643 511 643 c 0
 337 643 204 476 204 335 c 0
 204 226 281 163 367 163 c 0
 451 163 484 201 515 201 c 0
 521 201 529 199 529 191 c 0
 529 161 411 103 307 103 c 0
 186 103 115 186 115 293 c 0
 115 490 346 704 571 704 c 0
 724 704 813 594 813 452 c 0
EndSplineSet
EndChar
StartChar: R
Encoding: 82 82 19
Width: 904
Flags: HMW
Back
242.327 313.811 m 0
 269.055 420.721 285.962 527.519 292.797 632.812 c 0
 293.615 645.431 314.205 664.589 338.756 675.577 c 0
 363.306 686.565 382.566 685.243 381.747 672.626 c 0
 374.812 565.804 357.658 457.337 330.456 348.528 c 0
 303.254 239.72 266.121 131.029 219.44 23.7373 c 0
 212.998 8.93066 188.531 -9.41016 164.827 -17.2031 c 0
 141.123 -24.9961 127.113 -19.3047 133.555 -4.49805 c 0
 179.162 100.325 215.6 206.899 242.327 313.811 c 0
153.463 591.69 m 0
 145.843 587.29 138.929 581.869 132.638 574.691 c 0
 116.804 556.625 111.729 535.866 110.569 531.226 c 0
 107.141 517.51 84.6162 498.601 60.293 489.019 c 0
 35.9697 479.437 19.0117 482.791 22.4404 496.508 c 0
 28.6084 521.179 40.5107 544.382 60.9766 567.733 c 0
 79.3027 588.644 105.622 609.561 133.765 625.809 c 0
 144.479 631.994 140.91 629.833 142.709 630.805 c 0
 183.54 652.866 258.351 683.03 367.6 683.03 c 0
 385.576 683.03 386.578 669.451 369.837 652.72 c 0
 353.096 635.987 324.92 622.408 306.944 622.408 c 0
 236.507 622.408 183.173 607.791 156.14 593.185 c 0
 156.081 593.153 181.156 607.679 153.463 591.69 c 0
600.79 370.513 m 0
 622.5 383.047 667.355 414.597 683.283 478.307 c 0
 692.117 513.641 689.268 539.727 677.827 559.542 c 0
 645.449 615.621 543.868 622.408 414.278 622.408 c 2
 306.944 622.408 l 2
 288.968 622.408 287.966 635.987 304.707 652.72 c 0
 321.448 669.451 349.624 683.03 367.6 683.03 c 2
 474.935 683.03 l 2
 597.576 683.03 724.962 678.341 764.619 609.652 c 0
 778.486 585.635 781.632 553.904 771.412 513.025 c 0
 753.612 441.828 696.359 380.198 620.488 336.395 c 0
 540.858 290.42 457.838 273.398 391.425 273.398 c 0
 373.448 273.398 372.446 286.978 389.188 303.71 c 0
 405.929 320.441 434.104 334.021 452.08 334.021 c 0
 513.918 334.021 567.566 351.331 600.79 370.513 c 0
559.598 248.295 m 0
 583.841 206.306 605.322 155.97 628.894 115.144 c 0
 662.914 56.2197 690.282 39.9307 710.274 39.9307 c 0
 717.368 39.9307 734.74 40.5732 753.146 47.3281 c 0
 759.355 49.6074 764.575 52.1436 769.276 54.8574 c 0
 773.896 57.5244 776.366 59.3105 778.021 60.4873 c 0
 787.947 67.5488 800.558 78.9766 812.475 95.1934 c 0
 824.41 111.437 851.521 127.878 872.991 131.896 c 0
 894.461 135.912 902.198 125.99 890.263 109.748 c 0
 875.779 90.0391 852.689 64.0889 817.563 39.0996 c 0
 808.467 32.6289 798.862 26.4473 788.975 20.7393 c 0
 771.659 10.7412 753.564 2.2832 736.11 -4.12207 c 0
 704.543 -15.708 675.614 -20.6914 649.619 -20.6914 c 0
 610.961 -20.6914 579.039 1.05566 542.101 65.0342 c 0
 517.857 107.023 496.376 157.36 472.806 198.186 c 0
 438.785 257.109 411.417 273.398 391.425 273.398 c 0
 373.448 273.398 372.446 286.978 389.188 303.709 c 0
 405.929 320.441 434.104 334.021 452.08 334.021 c 0
 490.738 334.021 522.659 312.274 559.598 248.295 c 0
EndSplineSet
Fore
777 557 m 0
 777 450 673 341 527 295 c 1
 591 222 638 40 710 40 c 0
 772 40 803 82 812 95 c 0
 826 114 861 133 882 133 c 0
 891 133 896 129 896 123 c 0
 896 103 784 -21 650 -21 c 0
 562 -21 527 104 473 198 c 0
 439 257 411 273 391 273 c 0
 382 273 378 277 378 283 c 0
 378 299 416 334 452 334 c 0
 586 334 689 407 689 517 c 0
 689 608 584 622 414 622 c 2
 378 622 l 1
 357 401 294 196 219 24 c 0
 209 -1 167 -20 145 -20 c 0
 137 -20 132 -18 132 -12 c 0
 132 5 266 259 292 622 c 1
 254 621 166 613 133 575 c 0
 117 557 112 536 111 531 c 0
 105 507 58 484 35 484 c 0
 27 484 22 486 22 493 c 0
 22 508 46 575 134 626 c 2
 143 631 l 2
 184 653 258 683 368 683 c 2
 475 683 l 2
 617 683 777 678 777 557 c 0
EndSplineSet
EndChar
StartChar: S
Encoding: 83 83 20
Width: 641
Flags: HMW
Back
580.441 538.473 m 2
 585.714 559.563 584.155 581.114 575.209 596.609 c 0
 570.495 604.773 563.772 611.27 555.567 615.476 c 0
 519.533 633.945 477.979 643.236 435.617 643.236 c 0
 398.535 643.236 361.576 634.552 337.583 621.651 c 0
 337.523 621.619 367.69 639.093 334.685 620.037 c 0
 326.78 615.474 319.685 610.027 312.805 602.524 c 0
 304.123 593.055 293.748 577.821 288.408 556.463 c 0
 281.628 529.342 285.578 505.555 297.465 484.966 c 0
 310.354 462.642 339.401 431.501 414.859 403.912 c 0
 484.633 378.401 558.546 345.664 590.83 289.747 c 0
 606.26 263.022 612.063 230.812 602.186 191.301 c 0
 586.725 129.456 537.383 77.792 472.213 40.167 c 0
 391.521 -6.41992 304.268 -20.6924 240.551 -20.6924 c 0
 153.804 -20.6914 84.0508 13.2451 41.3643 66.043 c 0
 38.3301 69.7959 35.6152 73.7578 33.2217 77.9033 c 0
 16.9922 106.014 14.6436 142.028 32.1348 181.551 c 0
 38.3652 195.631 44.5928 205.044 49.1992 211.184 c 0
 60.0332 225.625 74.209 238.751 94.6719 250.564 c 1
 135.085 267.49 128.963 266.612 144.673 268.665 c 0
 147.083 268.98 153.924 269.424 156.047 269.424 c 0
 174.023 269.424 175.025 255.845 158.284 239.112 c 0
 141.543 222.381 113.367 208.802 95.3916 208.802 c 0
 94.6865 208.802 95.9258 208.917 95.1768 208.818 c 0
 95.1758 208.818 114.501 216.502 114.37 216.446 c 0
 114.369 216.446 128.34 227.534 126.395 224.94 c 0
 123.981 221.725 120.861 216.206 117.891 209.493 c 0
 100.894 171.086 112.853 140.419 120.015 128.013 c 0
 122.009 124.561 124.267 121.268 126.773 118.166 c 0
 168.769 66.2227 232.227 39.9297 301.207 39.9297 c 0
 369.88 39.9297 423.296 57.415 452.515 74.2852 c 0
 501.591 102.619 512.009 148.387 514.058 156.582 c 0
 522.104 188.773 517.627 216.099 504.037 239.638 c 0
 475.617 288.862 406.83 320.693 338.564 345.652 c 0
 255.948 375.857 224.792 410.399 210.672 434.856 c 0
 196.977 458.577 191.611 487.072 200.279 521.745 c 0
 206.801 547.829 220.285 572.864 243.158 597.812 c 0
 261.773 618.117 287.366 638.209 314.986 654.155 c 0
 323.238 658.92 322.675 658.479 324.611 659.519 c 0
 387.727 693.453 451.189 703.858 496.273 703.858 c 0
 548.646 703.858 595.15 692.785 634.842 672.441 c 0
 647.104 666.156 655.913 657.265 662.002 646.719 c 0
 673.558 626.704 675.467 600.776 668.57 573.191 c 2
 666.247 563.896 l 2
 662.818 550.18 640.296 531.271 615.972 521.688 c 0
 591.648 512.105 574.689 515.46 578.118 529.176 c 2
 580.441 538.473 l 2
EndSplineSet
Fore
577 525 m 0
 577 533 583 541 583 564 c 0
 583 585 576 605 556 615 c 0
 520 634 478 643 436 643 c 0
 399 643 360 634 336 621 c 0
 306 604 285 568 285 530 c 0
 285 515 289 499 297 485 c 0
 351 392 528 399 591 290 c 0
 601 273 607 251 607 228 c 0
 607 97 431 -21 241 -21 c 0
 116 -21 50 50 33 78 c 0
 24 93 20 110 20 129 c 0
 20 212 100 269 156 269 c 0
 165 269 170 265 170 260 c 0
 170 247 147 224 120 214 c 1
 114 202 110 186 110 169 c 0
 110 152 114 134 127 118 c 0
 169 66 232 40 301 40 c 0
 370 40 423 57 453 74 c 0
 495 98 518 143 518 186 c 0
 518 205 513 224 504 240 c 0
 445 342 268 335 211 435 c 0
 201 453 196 471 196 491 c 0
 196 549 241 611 315 654 c 2
 325 660 l 2
 388 693 451 704 496 704 c 0
 537 704 636 692 662 647 c 0
 670 634 673 620 673 606 c 0
 673 593 670 579 666 564 c 0
 660 540 613 516 590 516 c 0
 583 516 577 519 577 525 c 0
EndSplineSet
EndChar
StartChar: T
Encoding: 84 84 21
Width: 583
Flags: HMW
Back
306.002 149.269 m 2
 417.71 596.103 l 2
 421.176 609.965 445.985 630.65 473.089 642.275 c 0
 500.191 653.9 519.376 652.084 515.91 638.222 c 2
 404.202 191.389 l 2
 386.646 121.166 361.411 50.9961 328.783 -18.0234 c 0
 321.518 -33.3906 294.244 -53.6113 267.903 -63.1582 c 0
 241.563 -72.7051 226.081 -67.9814 233.347 -52.6143 c 0
 264.553 13.3984 288.973 81.1514 306.002 149.269 c 2
824.448 645.928 m 0
 819.519 643.082 797.312 630.512 769.547 624.022 c 0
 749.825 619.413 730.798 617.39 683.712 617.39 c 2
 224.909 617.39 l 2
 220.652 617.39 209.701 617.151 197.555 614.508 c 0
 189.469 612.748 180.943 609.902 175.161 606.564 c 0
 166.449 601.534 158.566 591.973 158.335 591.699 c 0
 137.407 566.993 135.358 540.478 134.966 535.596 c 0
 133.938 522.829 110.942 502.063 83.6377 489.246 c 0
 56.333 476.428 35.0078 476.387 36.0361 489.154 c 0
 38.3486 517.876 50.3936 546.131 75.2236 575.444 c 0
 93.6543 597.202 121.569 621.005 155.511 640.601 c 0
 187.796 659.24 220.538 671.336 248.368 677.395 c 0
 265.927 681.216 282.209 682.939 297.63 682.939 c 2
 756.433 682.939 l 2
 779.556 682.939 803.658 683.023 818.068 686.392 c 0
 821.093 687.098 817.327 687.197 804.798 679.964 c 1
 804.8 679.965 781.167 657.538 782.599 663.265 c 0
 786.063 677.127 810.873 697.812 837.977 709.438 c 0
 865.079 721.062 884.264 719.247 880.799 705.385 c 0
 877.763 693.24 865.587 669.679 824.448 645.928 c 0
EndSplineSet
Fore
36 488 m 0
 36 570 172 683 298 683 c 2
 756 683 l 2
 770 683 785 683 797 684 c 1
 817 702 851 717 869 717 c 0
 877 717 881 715 881 709 c 0
 881 683 830 638 770 624 c 0
 750 619 731 617 684 617 c 2
 511 617 l 1
 404 191 l 2
 386 121 361 51 329 -18 c 0
 316 -44 267 -68 244 -68 c 0
 236 -68 231 -65 231 -60 c 0
 231 -48 272 14 306 149 c 2
 418 596 l 2
 419 603 425 610 433 617 c 1
 225 617 l 2
 151 617 137 560 135 536 c 0
 133 517 82 480 49 480 c 0
 41 480 36 482 36 488 c 0
EndSplineSet
EndChar
StartChar: U
Encoding: 85 85 22
Width: 663
Flags: HMW
Back
235.681 25.5342 m 0
 159.831 -18.2568 110.566 -20.6924 93.8154 -20.6924 c 0
 47.209 -20.6924 20.0283 0.880859 4.86328 27.1475 c 0
 -17.0254 65.0596 -19.2217 119.959 -5.05273 176.634 c 0
 32.8955 328.43 173.146 559.014 142.24 612.544 c 0
 137.991 619.904 131.444 622.408 123.364 622.408 c 0
 117.175 622.408 104.346 621.989 89.583 617.472 c 0
 82.4473 615.288 76.3135 612.627 70.3555 609.188 c 0
 68.75 608.26 67.1387 607.276 65.1084 605.917 c 0
 42.3955 590.71 16.3691 584.032 7.01465 591.011 c 0
 -2.34082 597.989 8.50098 615.995 31.2139 631.202 c 0
 38.7324 636.236 44.71 639.871 50.6572 643.305 c 0
 75.4258 657.605 98.2549 666.669 116.506 672.255 c 0
 138.542 678.998 161.327 683.03 184.021 683.03 c 0
 208.071 683.03 222.031 674.781 229.033 662.653 c 0
 267.448 596.118 121.989 367.005 83.0752 211.353 c 0
 69.7246 157.949 73.5693 108.584 91.6562 77.2568 c 0
 96.5146 68.8418 114.406 39.9297 154.472 39.9297 c 0
 179.538 39.9297 202.264 51.7324 215.982 59.6523 c 0
 352.827 138.659 586.394 442.811 634.532 635.36 c 0
 637.961 649.076 660.484 667.985 684.808 677.567 c 0
 709.132 687.149 726.09 683.795 722.66 670.078 c 0
 676.628 485.95 442.655 145.031 235.681 25.5342 c 0
575.448 199.256 m 0
 563.558 151.693 556.604 104.169 554.72 57.5117 c 0
 554.518 52.4902 555.644 47.9131 557.786 44.2012 c 0
 558.785 42.4707 563.75 34.4482 573.967 33.7617 c 0
 577.304 33.5381 573.686 34.2734 565.341 30.0625 c 1
 581.683 38.3076 l 2
 606.167 50.6611 627.645 51.5273 629.625 40.2422 c 0
 631.605 28.957 613.341 9.77246 588.857 -2.58008 c 2
 572.515 -10.8252 l 2
 548.171 -23.1074 526.37 -27.8838 509.058 -26.7217 c 0
 497.789 -25.9658 480.228 -21.9023 470.993 -5.9082 c 0
 467.315 0.462891 465.376 8.12793 465.738 17.1152 c 0
 467.69 65.4531 474.894 114.83 487.32 164.537 c 0
 526.832 322.589 576.215 480.539 635.199 637.482 c 0
 640.636 651.946 664.489 670.512 688.444 678.922 c 0
 712.399 687.333 727.429 682.42 721.993 667.956 c 0
 663.589 512.558 614.637 356.01 575.448 199.256 c 0
EndSplineSet
Fore
710 683 m 0
 716 683 723 681 723 674 c 0
 723 664 704 608 685 566 c 0
 635 423 555 164 555 64 c 0
 555 51 556 36 573 34 c 1
 585 40 601 48 616 48 c 0
 622 48 630 46 630 39 c 0
 630 27 612 9 589 -3 c 2
 573 -11 l 2
 551 -22 531 -27 514 -27 c 0
 485 -27 466 -11 466 15 c 0
 466 92 495 200 524 303 c 1
 393 130 223 -21 94 -21 c 0
 17 -21 -14 38 -14 108 c 0
 -14 247 147 500 147 593 c 0
 147 612 140 622 123 622 c 0
 67 622 56 588 19 588 c 0
 9 588 4 592 4 599 c 0
 4 625 102 683 184 683 c 0
 221 683 235 664 235 633 c 0
 235 527 75 283 75 151 c 0
 75 92 99 40 154 40 c 0
 263 40 501 321 599 537 c 2
 635 637 l 2
 642 659 688 683 710 683 c 0
EndSplineSet
EndChar
StartChar: V
Encoding: 86 86 23
Width: 653
Flags: HMW
Back
163.546 551.702 m 0
 134.438 602.118 94.6865 627.25 47.2998 627.25 c 0
 30.0654 627.25 26.918 639.762 40.2734 655.178 c 0
 53.6299 670.594 78.457 683.105 95.6914 683.105 c 0
 139.678 683.105 197.46 669.614 240.039 595.864 c 0
 324.695 449.233 297.715 149.884 283.903 41.8916 c 1
 257.913 22.0684 237.269 7.60547 225.165 0 c 1
 199.906 -27.083 l 1
 199.914 -25.5459 200.211 -23.8604 200.818 -22.0381 c 1
 197.439 -32.166 267.789 371.146 163.546 551.702 c 0
640.671 475.363 m 0
 642.979 481.705 644.769 487.532 646.181 493.18 c 0
 648.729 503.37 647.542 509.106 647.475 510.195 c 0
 645.939 535.273 629.928 568.099 592.352 581.774 c 0
 581.503 585.724 569.298 587.886 555.998 587.886 c 0
 544.56 587.886 541.693 609.165 549.6 635.385 c 0
 557.507 661.604 573.207 682.885 584.646 682.885 c 0
 599.9 682.885 613.94 680.417 626.58 675.816 c 0
 679.964 656.387 695.479 606.486 697.657 570.939 c 0
 698.79 552.443 697.087 529.877 690.699 504.329 c 0
 687.135 490.068 682.695 475.799 677.64 461.908 c 0
 590.977 223.807 273.692 -10.1465 218.236 -44.9951 c 0
 204.867 -53.3965 197.121 -40.0566 200.946 -15.2188 c 0
 204.771 9.61816 218.726 36.5947 232.095 44.9951 c 0
 346.627 116.968 589.233 334.04 640.671 475.363 c 0
EndSplineSet
Fore
200 -27 m 0
 200 -1 221 70 221 246 c 0
 221 419 186 627 47 627 c 0
 37 627 32 631 32 638 c 0
 32 656 70 683 96 683 c 0
 218 683 299 572 299 275 c 0
 299 203 294 135 289 85 c 1
 473 225 647 425 647 507 c 0
 647 541 619 588 556 588 c 0
 548 588 545 595 545 606 c 0
 545 634 566 683 585 683 c 0
 651 683 697 639 697 561 c 0
 697 297 231 -48 211 -48 c 0
 204 -48 200 -40 200 -27 c 0
EndSplineSet
EndChar
StartChar: W
Encoding: 87 87 24
Width: 1051
Flags: HMW
Back
150.328 562.006 m 0
 124.877 606.09 89.709 627.25 47.2998 627.25 c 0
 30.0654 627.25 26.918 639.762 40.2734 655.178 c 0
 53.6299 670.594 78.457 683.105 95.6914 683.105 c 0
 174.806 683.105 210.475 634.481 226.821 606.169 c 0
 292.862 491.781 276.828 267.481 257.41 126.215 c 1
 316.658 198.448 372.146 272.767 423.579 348.695 c 0
 484.329 438.378 539.255 530.044 588.086 622.969 c 1
 583.723 634.329 l 2
 579.744 644.587 593.914 662.251 615.352 673.76 c 0
 636.79 685.268 657.417 686.283 661.396 676.026 c 0
 702.787 569.326 734.67 457.586 756.767 341.766 c 0
 774.445 249.105 785.82 154.043 790.832 57.1025 c 1
 767.736 30.374 749.339 10.4209 739.096 0 c 2
 713.836 -27.083 l 1
 710.528 85.7305 698.604 196.173 678.147 303.389 c 0
 660.634 395.186 636.903 484.406 607.107 570.554 c 1
 555.608 473.358 498.514 378.563 436.278 286.689 c 0
 362.845 178.284 279.089 69.2764 184.181 -38.0293 c 0
 170.285 -53.7393 158.583 -49.4531 158.06 -28.4609 c 0
 158.034 -27.4238 158.064 -26.3652 158.064 -25.2881 c 0
 157.91 -24.3555 157.947 -23.457 158.187 -22.6309 c 2
 158.63 -15.7695 160.072 -8.27441 162.273 -0.803711 c 0
 176.943 82.9209 237.028 411.835 150.328 562.006 c 0
1035.81 465.176 m 0
 1039.53 475.387 1042.4 484.682 1044.52 493.18 c 0
 1047.5 505.087 1045.08 493.818 1046.23 502.007 c 0
 1049.64 526.19 1043.95 569.695 1005.17 583.812 c 0
 997.943 586.44 989.766 587.886 980.635 587.886 c 0
 969.196 587.886 966.33 609.166 974.236 635.386 c 0
 982.144 661.605 997.844 682.885 1009.28 682.885 c 0
 1020.32 682.885 1030.36 681.141 1039.39 677.854 c 0
 1079.67 663.193 1106.1 613.5 1095.03 534.862 c 0
 1093.65 525.077 1091.67 514.832 1089.04 504.329 c 0
 1084.63 486.697 1079.09 469.05 1072.78 451.721 c 0
 993.91 235.028 762.624 -15.1611 738.205 -40.0039 c 0
 724.309 -54.1406 713.43 -47.6934 713.921 -25.6113 c 0
 714.412 -3.5293 726.09 25.8662 739.986 40.0029 c 0
 811.5 112.757 984.805 325.032 1035.81 465.176 c 0
EndSplineSet
Fore
32 638 m 0
 32 656 70 683 96 683 c 0
 211 683 275 577 275 356 c 0
 275 290 269 213 257 126 c 1
 382 278 495 446 588 623 c 1
 583.834 633.866 l 2
 583.267 635.4 583 637 583 638 c 0
 583 656 621 683 647 683 c 0
 654 683 660 681 661 676 c 1
 720 524 773 327 789 94 c 1
 907 231 1047 430 1047 514 c 0
 1047 545 1033 588 981 588 c 0
 973 588 969 595 969 606 c 0
 969 634 991 683 1009 683 c 0
 1061 683 1097 644 1097 571 c 0
 1097 353 778 1 738 -40 c 0
 733 -45 729 -47 725 -47 c 0
 718 -47 714 -40 714 -27 c 0
 707 213 661 415 607 571 c 1
 469 310 312 107 184 -38 c 0
 178 -45 173 -48 169 -48 c 0
 162 -48 158 -40 158 -25 c 1
 157 -21 196 154 196 323 c 0
 196 453 171 627 47 627 c 0
 37 627 32 631 32 638 c 0
EndSplineSet
EndChar
StartChar: X
Encoding: 88 88 25
Width: 754
Flags: HMW
Back
659.764 26.1152 m 0
 645.222 17.7188 631.792 12.5 621.062 9.1875 c 0
 592.445 0.356445 567.284 0.135742 552.394 0.135742 c 0
 507.617 0.136719 489.486 25.209 480.725 40.3848 c 0
 465.752 66.3164 459.914 100.606 455.92 132.99 c 2
 409.871 506.356 l 2
 405.972 537.976 399.995 570.38 387.124 592.672 c 0
 384.55 597.132 371.706 622.409 341.592 622.409 c 0
 331.993 622.409 314.831 621.719 307.061 619.32 c 0
 307.061 619.32 309.716 620.128 314.575 622.934 c 0
 321.558 626.965 326.141 630.56 326.765 631.772 c 1
 325.989 630.265 324.964 627.7 324.193 624.619 c 0
 320.765 610.903 298.241 591.994 273.917 582.412 c 0
 249.594 572.83 232.636 576.185 236.064 589.9 c 0
 238.057 597.871 240.601 603.241 242.421 606.78 c 0
 246.637 614.975 258.211 635.883 294.877 657.052 c 0
 309.42 665.448 322.849 670.667 333.579 673.979 c 0
 362.195 682.811 387.356 683.031 402.248 683.031 c 0
 447.023 683.031 465.155 657.958 473.917 642.782 c 0
 488.889 616.851 494.728 582.561 498.722 550.177 c 2
 544.77 176.811 l 2
 548.67 145.191 554.646 112.787 567.517 90.4951 c 0
 570.092 86.0352 582.936 60.7578 613.05 60.7578 c 0
 629.821 60.7578 642.061 62.1426 647.58 63.8457 c 0
 647.58 63.8457 644.925 63.0391 640.065 60.2334 c 1
 640.067 60.2344 626.014 47.7734 627.877 51.3945 c 0
 628.652 52.9023 629.678 55.4668 630.448 58.5479 c 0
 633.877 72.2637 656.4 91.1729 680.725 100.755 c 0
 705.048 110.337 722.006 106.982 718.577 93.2666 c 0
 716.584 85.2959 714.04 79.9248 712.22 76.3867 c 0
 708.004 68.1914 696.43 47.2842 659.764 26.1152 c 0
61.5186 25.6387 m 0
 52.4521 41.3428 50.5029 62.1387 56.2471 85.1123 c 0
 60.1367 100.673 73.4639 118.101 87.3809 132.447 c 0
 116.344 162.307 169.246 203.771 307.672 283.691 c 0
 394.569 333.861 491.298 386.048 573.648 433.593 c 0
 670.031 489.239 724.738 526.239 746.812 548.995 c 0
 753.332 555.718 755.707 559.585 756.645 563.337 c 0
 760.697 579.547 759.173 596.224 752.709 607.419 c 0
 746.5 618.173 737.218 622.408 729.596 622.408 c 0
 711.62 622.408 710.617 635.987 727.358 652.72 c 0
 744.1 669.451 772.275 683.03 790.252 683.03 c 0
 820.158 683.03 832.569 669.535 839.502 657.528 c 0
 848.568 641.824 850.517 621.028 844.773 598.055 c 0
 840.884 582.494 827.557 565.066 813.64 550.72 c 0
 784.677 520.86 731.773 479.396 593.347 399.475 c 0
 506.45 349.306 409.722 297.118 327.371 249.573 c 0
 230.989 193.928 176.282 156.928 154.209 134.172 c 0
 147.688 127.449 145.313 123.582 144.375 119.83 c 0
 140.322 103.62 141.848 86.9434 148.312 75.748 c 0
 154.521 64.9941 163.803 60.7578 171.425 60.7578 c 0
 189.4 60.7588 190.403 47.1787 173.662 30.4473 c 0
 156.921 13.7158 128.745 0.136719 110.77 0.136719 c 0
 80.8623 0.136719 68.4512 13.6318 61.5186 25.6387 c 0
EndSplineSet
Fore
111 0 m 0
 73 0 53 26 53 60 c 0
 53 105 75 149 308 284 c 2
 429 352 l 1
 410 506 l 2
 405 546 394 622 342 622 c 2
 323 622 l 1
 310 596 272 577 250 577 c 0
 241 577 236 580 236 587 c 0
 236 609 281 683 402 683 c 0
 474 683 490 617 499 550 c 2
 517 402 l 1
 574 434 l 2
 759 541 759 557 759 581 c 0
 759 604 747 622 730 622 c 0
 720 622 716 626 716 632 c 0
 716 648 755 683 790 683 c 0
 828 683 848 657 848 623 c 0
 848 578 826 534 593 399 c 2
 522 359 l 1
 545 177 l 2
 550 137 560 61 613 61 c 2
 632 61 l 1
 645 87 683 106 705 106 c 0
 714 106 719 103 719 97 c 0
 719 77 677 0 552 0 c 0
 480 0 464 66 456 133 c 2
 434 310 l 1
 327 250 l 2
 142 143 142 127 142 102 c 0
 142 79 154 61 171 61 c 0
 181 61 185 57 185 52 c 0
 185 35 146 0 111 0 c 0
EndSplineSet
EndChar
StartChar: Y
Encoding: 89 89 26
Width: 704
Flags: HMW
Back
277.34 537.714 m 0
 236.529 608.4 185.9 627.25 143.647 627.25 c 0
 139.981 627.25 137.518 626.641 136.704 626.352 c 0
 136.076 625.978 135.354 625.409 132.698 622.171 c 0
 120.065 606.769 95.3896 593.75 77.6182 593.113 c 0
 59.8467 592.477 55.6768 604.461 68.3086 619.863 c 0
 79.9688 634.079 96.7656 648.891 117.214 660.696 c 0
 123.854 664.53 131.074 668.26 140.209 671.98 c 0
 159.568 679.865 177.291 683.105 192.039 683.105 c 0
 272.356 683.105 321.629 637.655 353.833 581.876 c 0
 435.964 439.619 433.424 178.442 427.195 63.0527 c 1
 399.352 37.2295 371.786 13.8135 345.561 -6.65137 c 1
 350.546 63.9717 371.624 374.408 277.34 537.714 c 0
136.958 626.499 m 1
 136.958 626.499 l 1
 136.958 626.499 l 1
136.565 626.299 m 1
 136.564 626.299 l 1
 136.565 626.299 l 1
146.577 -48.4023 m 0
 160.499 -53.4697 176.062 -56.1982 192.74 -56.1982 c 0
 269.231 -56.1982 594.983 203.762 687.683 458.442 c 0
 693.126 473.398 697.675 488.115 701.324 502.712 c 0
 704.06 513.655 702.408 505.319 703.143 513.504 c 0
 705.453 539.222 693.37 579.376 650.29 595.056 c 0
 640.043 598.785 628.504 600.833 615.885 600.833 c 0
 604.511 600.833 600.434 619.201 606.783 641.833 c 0
 613.133 664.466 627.518 682.834 638.892 682.834 c 0
 653.747 682.834 667.414 680.434 679.733 675.95 c 0
 721.024 660.921 756.559 617.457 749.835 542.603 c 0
 748.844 531.558 746.877 519.78 743.855 507.691 c 0
 738.585 486.612 732.075 465.639 724.569 445.017 c 0
 611.81 135.221 258.481 -138.199 169.733 -138.199 c 0
 150.803 -138.199 133.135 -135.12 117.134 -129.297 c 0
 77.6982 -114.943 43.8467 -81.4795 33.6982 -28.0176 c 0
 30.5625 -11.4941 38.2773 14.4678 50.9209 29.9336 c 0
 63.5645 45.3994 76.3711 44.541 79.5078 28.0176 c 0
 85.5957 -4.05566 108.055 -34.3809 146.577 -48.4023 c 0
EndSplineSet
Fore
604 622 m 0
 604 650 624 683 639 683 c 0
 702 683 751 636 751 560 c 0
 751 544 748 526 744 508 c 0
 660 171 264 -138 170 -138 c 0
 63 -138 33 -48 33 -20 c 0
 33 10 54 41 68 41 c 0
 74 41 78 37 80 28 c 0
 88 -16 128 -56 193 -56 c 0
 220 -56 279 -23 348 31 c 1
 350 69 351 105 351 140 c 0
 351 428 283 627 144 627 c 0
 137 627 137 627 133 622 c 0
 121 608 96 593 76 593 c 0
 66 593 61 597 61 604 c 0
 61 621 124 683 192 683 c 0
 398 683 430 371 430 172 c 0
 430 146 430 122 429 101 c 1
 651 308 703 485 703 520 c 0
 703 557 677 601 616 601 c 0
 608 601 604 609 604 622 c 0
EndSplineSet
EndChar
StartChar: Z
Encoding: 90 90 27
Width: 760
Flags: HMW
Back
748.404 623.221 m 0
 726.938 610.827 706.248 602.798 691.129 598.488 c 0
 676.456 594.307 661.822 591.835 647.206 591.835 c 0
 557.675 591.835 482.72 617.39 400.075 617.39 c 0
 375.73 617.39 355.562 613.222 342.619 609.298 c 0
 332.163 606.127 325.904 603.024 322.966 601.328 c 0
 316.085 597.355 310.423 591.196 305.214 583.546 c 0
 300.116 576.061 295.14 565.961 292.177 554.11 c 0
 288.712 540.247 263.902 519.562 236.799 507.938 c 0
 209.695 496.312 190.512 498.128 193.977 511.99 c 0
 197.885 527.621 204.654 542.795 215.185 558.26 c 0
 241.63 597.099 283.419 623.877 303.315 635.364 c 0
 330.049 650.799 356.404 661.51 379.992 668.662 c 0
 400.71 674.943 434.208 682.939 472.796 682.938 c 0
 562.327 682.938 637.282 657.385 719.927 657.385 c 0
 724.583 657.385 728.957 658.011 731.618 658.77 c 0
 733.219 659.226 731.097 658.609 728.754 657.257 c 1
 728.763 657.262 726.504 655.805 726.504 655.805 c 0
 749.467 673.627 780.122 685.563 794.932 682.45 c 0
 809.741 679.336 803.125 662.346 780.162 644.523 c 0
 770.686 637.169 759.834 629.819 748.404 623.221 c 0
448.562 371.467 m 0
 540.962 457.113 629.206 547.803 712.512 642.89 c 0
 727.967 660.529 758.798 678.105 781.331 682.121 c 0
 803.864 686.138 809.609 675.08 794.154 657.439 c 0
 707.651 558.703 615.423 463.838 517.875 373.42 c 0
 388.445 253.451 254.144 138.23 115.41 28.208 c 0
 92.8428 10.3105 62.0244 -2.06641 46.6201 0.580078 c 0
 31.2148 3.22656 37.0273 19.8994 59.5947 37.7969 c 0
 193.127 143.695 322.958 255.045 448.562 371.467 c 0
614.371 32.7324 m 0
 601.686 25.4082 586.668 17.9414 570.025 11.9229 c 0
 563.48 9.55566 537.941 0.227539 509.277 0.227539 c 0
 383.023 0.227539 270.554 25.7822 149.156 25.7832 c 0
 131.831 25.7832 117.025 22.4951 107.726 19.5205 c 0
 101.784 17.6201 96.5742 15.4463 91.7891 12.9316 c 0
 64.5684 -1.37109 40.5547 -3.9873 38.1885 7.0918 c 0
 35.8223 18.1709 55.9941 38.7705 83.2148 53.0732 c 0
 100.559 62.1855 120.317 70.9834 142.13 77.96 c 0
 159.84 83.624 189.338 91.332 221.877 91.332 c 0
 348.131 91.332 460.601 65.7773 581.998 65.7764 c 0
 587.275 65.7764 593.221 66.4717 596.51 67.6602 c 0
 596.513 67.6621 595.43 67.1787 594.721 66.7686 c 1
 629.881 87.0684 594.273 66.4971 594.353 66.5479 c 0
 607.89 75.126 636.231 112.593 647.668 158.336 c 0
 651.133 172.198 675.942 192.884 703.046 204.509 c 0
 730.149 216.134 749.333 214.317 745.868 200.455 c 0
 732.435 146.722 695.795 84.0205 625.199 39.2861 c 0
 623.074 37.9395 623.162 37.8076 614.371 32.7324 c 0
561.446 337.263 m 0
 559.511 340.615 561.74 337.511 559.702 338.839 c 0
 548.301 346.267 515.26 347.443 466.332 347.442 c 2
 319.404 347.443 l 2
 303.527 347.443 298.206 358.645 307.527 372.444 c 0
 316.849 386.244 337.299 397.444 353.176 397.444 c 2
 500.104 397.443 l 2
 575.549 397.444 601.545 392.751 616.219 383.191 c 0
 619.857 380.82 623.033 377.896 625.231 374.089 c 0
 628.639 368.188 628.737 361.685 627.206 355.559 c 0
 623.971 342.615 606.635 328.227 588.51 323.439 c 0
 570.385 318.653 558.302 325.274 561.537 338.218 c 0
 562.01 340.106 561.738 336.757 561.446 337.263 c 0
EndSplineSet
Fore
628 363 m 0
 628 343 599 322 577 322 c 0
 566 322 559 328 561 337 c 1
 557 345 521 347 490 347 c 1
 407 271 309 185 192 89 c 1
 202 91 212 91 222 91 c 0
 348 91 461 66 582 66 c 0
 587 66 592 66 596 67 c 1
 609 77 637 114 648 158 c 0
 654 183 710 212 734 212 c 0
 742 212 746 210 746 204 c 0
 746 182 709 93 625 39 c 2
 614 33 l 2
 591 19 551 0 509 0 c 0
 383 0 271 26 149 26 c 0
 95 26 83 0 51 0 c 0
 28 0 39 21 60 38 c 0
 207 154 326 258 423 347 c 1
 319 347 l 2
 309 347 303 352 303 360 c 0
 303 375 329 397 353 397 c 2
 476 397 l 1
 557 475 620 541 668 593 c 1
 661 592 654 592 647 592 c 0
 558 592 483 617 400 617 c 0
 322 617 301 588 292 554 c 0
 286 529 230 500 205 500 c 0
 198 500 194 503 194 508 c 0
 194 558 311 683 473 683 c 0
 562 683 637 657 720 657 c 0
 724 657 727 658 730 658 c 1
 735 662 766 683 790 683 c 0
 796 683 803 681 803 674 c 0
 803 670 800 664 794 657 c 0
 739 595 659 507 542 397 c 1
 588 395 628 390 628 363 c 0
EndSplineSet
EndChar
